<mxfile host="app.diagrams.net" modified="2024-03-07T18:04:27.457Z" agent="Mozilla/5.0 (Windows NT 10.0; Win64; x64) AppleWebKit/537.36 (KHTML, like Gecko) Chrome/122.0.0.0 Safari/537.36" etag="mbaNZbaCBS9NhJwFf4wC" version="24.0.2" type="device">
  <diagram id="TT8WWTOxTNUSlIMXdxdx" name="Page-1">
    <mxGraphModel dx="1877" dy="1738" grid="1" gridSize="10" guides="1" tooltips="1" connect="1" arrows="1" fold="1" page="1" pageScale="1" pageWidth="827" pageHeight="1169" math="0" shadow="0">
      <root>
        <mxCell id="0" />
        <mxCell id="1" parent="0" />
        <mxCell id="SKrHwn_6_twiPewyShYr-1" value="fs:Player&#xa;(Baseball player)" style="graphMlID=n4;shape=rect;rounded=1;arcsize=30;fillColor=#ffff00;strokeColor=#000000;strokeWidth=1.0;fontStyle=1" parent="1" vertex="1">
          <mxGeometry x="630" y="128" width="94.97" height="40" as="geometry" />
        </mxCell>
        <mxCell id="68QGnL6lObhzxrOEoNof-1" value="" style="graphMlID=e0;rounded=0;endArrow=block;strokeColor=#000080;strokeWidth=1.0;startArrow=oval;startFill=1;endFill=1;exitX=0;exitY=0.5;exitDx=0;exitDy=0;entryX=1;entryY=0.5;entryDx=0;entryDy=0;" parent="1" source="SKrHwn_6_twiPewyShYr-1" target="RSyCqdyMON4DzPg3mdLE-1" edge="1">
          <mxGeometry relative="1" as="geometry">
            <mxPoint x="500" y="100" as="sourcePoint" />
            <mxPoint x="430" y="160" as="targetPoint" />
          </mxGeometry>
        </mxCell>
        <mxCell id="68QGnL6lObhzxrOEoNof-2" value="&lt;span style=&quot;color: rgb(0 , 0 , 128) ; font-family: &amp;quot;dialog&amp;quot; ; font-size: 16px ; background-color: rgb(248 , 249 , 250)&quot;&gt;&lt;b&gt;exob&lt;/b&gt;:engagedIn&lt;/span&gt;" style="text;html=1;align=center;verticalAlign=middle;resizable=0;points=[];labelBackgroundColor=#ffffff;" parent="68QGnL6lObhzxrOEoNof-1" vertex="1" connectable="0">
          <mxGeometry x="-0.0174" y="2" relative="1" as="geometry">
            <mxPoint as="offset" />
          </mxGeometry>
        </mxCell>
        <mxCell id="RSyCqdyMON4DzPg3mdLE-1" value="fs:BecomingAware&#xa;(TrendPerception)" style="graphMlID=n4;shape=rect;rounded=1;arcsize=30;fillColor=#ffff00;strokeColor=#000000;strokeWidth=1.0;fontStyle=1" parent="1" vertex="1">
          <mxGeometry x="280" y="123" width="150" height="50" as="geometry" />
        </mxCell>
        <mxCell id="4798ugVQR6CEGWnT5jVD-1" value="" style="graphMlID=e0;rounded=0;endArrow=block;strokeColor=#000080;strokeWidth=1.0;startArrow=oval;startFill=1;endFill=1;entryX=1;entryY=0.5;entryDx=0;entryDy=0;" parent="1" source="RSyCqdyMON4DzPg3mdLE-1" target="cGCSp1flGnfeDs-r0S0j-1" edge="1">
          <mxGeometry relative="1" as="geometry">
            <mxPoint x="90" y="120" as="sourcePoint" />
            <mxPoint x="-10" y="148" as="targetPoint" />
          </mxGeometry>
        </mxCell>
        <mxCell id="4798ugVQR6CEGWnT5jVD-2" value="&lt;span style=&quot;color: rgb(0 , 0 , 128) ; font-family: &amp;quot;dialog&amp;quot; ; font-size: 16px ; background-color: rgb(248 , 249 , 250)&quot;&gt;&lt;b&gt;exob&lt;/b&gt;:inActivity&lt;/span&gt;" style="text;html=1;align=center;verticalAlign=middle;resizable=0;points=[];labelBackgroundColor=#ffffff;rotation=0;" parent="4798ugVQR6CEGWnT5jVD-1" vertex="1" connectable="0">
          <mxGeometry x="-0.0174" y="2" relative="1" as="geometry">
            <mxPoint x="2" as="offset" />
          </mxGeometry>
        </mxCell>
        <mxCell id="cGCSp1flGnfeDs-r0S0j-1" value="fs:Activity&#xa;(baseball match)" style="graphMlID=n4;shape=rect;rounded=1;arcsize=30;fillColor=#ffff00;strokeColor=#000000;strokeWidth=1.0;fontStyle=1" parent="1" vertex="1">
          <mxGeometry x="-130" y="123" width="110" height="44" as="geometry" />
        </mxCell>
        <mxCell id="0dysBMGijNRupvYEnad4-1" value="fs:Pattern&#xa;(VariablesPattern)" style="graphMlID=n4;shape=rect;rounded=1;arcsize=30;fillColor=#ffff00;strokeColor=#000000;strokeWidth=1.0;fontStyle=1" parent="1" vertex="1">
          <mxGeometry x="220" y="340" width="100" height="44" as="geometry" />
        </mxCell>
        <mxCell id="0dysBMGijNRupvYEnad4-3" value="" style="graphMlID=e0;rounded=0;endArrow=block;strokeColor=#000080;strokeWidth=1.0;startArrow=oval;startFill=1;endFill=1;exitX=0.551;exitY=1.044;exitDx=0;exitDy=0;exitPerimeter=0;" parent="1" source="RSyCqdyMON4DzPg3mdLE-1" target="0dysBMGijNRupvYEnad4-1" edge="1">
          <mxGeometry relative="1" as="geometry">
            <mxPoint x="-50" y="300.08183758898736" as="sourcePoint" />
            <mxPoint x="101" y="300" as="targetPoint" />
          </mxGeometry>
        </mxCell>
        <mxCell id="0dysBMGijNRupvYEnad4-4" value="&lt;span style=&quot;color: rgb(0 , 0 , 128) ; font-family: &amp;quot;dialog&amp;quot; ; font-size: 16px ; background-color: rgb(248 , 249 , 250)&quot;&gt;&lt;b&gt;cbo&lt;/b&gt;:isPercievedAs&lt;/span&gt;" style="text;html=1;align=center;verticalAlign=middle;resizable=0;points=[];labelBackgroundColor=#ffffff;" parent="0dysBMGijNRupvYEnad4-3" vertex="1" connectable="0">
          <mxGeometry x="-0.0174" y="2" relative="1" as="geometry">
            <mxPoint as="offset" />
          </mxGeometry>
        </mxCell>
        <mxCell id="Nfzc0pXYAsq9ZPCf8oNW-1" value="cbo:VariableEntity2&#xa;(Victories)" style="graphMlID=n4;shape=rect;rounded=1;arcsize=30;fillColor=#ffff00;strokeColor=#000000;strokeWidth=1.0;fontStyle=1" parent="1" vertex="1">
          <mxGeometry x="-200" y="450" width="140" height="44" as="geometry" />
        </mxCell>
        <mxCell id="PaXvCF6I9jZfVOhks1jT-1" value="cbo:VariableEntity1&#xa;(pair of socks)" style="graphMlID=n4;shape=rect;rounded=1;arcsize=30;fillColor=#ffff00;strokeColor=#000000;strokeWidth=1.0;fontStyle=1" parent="1" vertex="1">
          <mxGeometry x="170" y="572" width="121.97" height="42" as="geometry" />
        </mxCell>
        <mxCell id="5BQml85dscBmbz3Mg7MK-1" value="cbo:Variables" style="graphMlID=n4;shape=rect;rounded=1;arcsize=30;fillColor=#ffff00;strokeColor=#000000;strokeWidth=1.0;fontStyle=1" parent="1" vertex="1">
          <mxGeometry x="-90" y="650" width="90" height="44" as="geometry" />
        </mxCell>
        <mxCell id="r5BaJk7cRrCO1Sx6e4Hi-1" value="fs:CognitiveConnection&#xa;(VariablesCorrelation)" style="graphMlID=n4;shape=rect;rounded=1;arcsize=30;fillColor=#ffff00;strokeColor=#000000;strokeWidth=1.0;fontStyle=1" parent="1" vertex="1">
          <mxGeometry x="-1.7763568394002505e-15" y="280" width="140.99" height="50" as="geometry" />
        </mxCell>
        <mxCell id="5zVd2lZ5E0JLYklkrZC7-1" value="dbr:Illusion" style="graphMlID=n4;shape=rect;rounded=1;arcsize=30;fillColor=#ffff00;strokeColor=#000000;strokeWidth=1.0;fontStyle=1" parent="1" vertex="1">
          <mxGeometry x="-270" y="283" width="81.96822102864604" height="44" as="geometry" />
        </mxCell>
        <mxCell id="fdhvtoYpFGsnpXYKr_OA-1" value="" style="graphMlID=e0;rounded=0;endArrow=block;strokeColor=#000080;strokeWidth=1.0;startArrow=oval;startFill=1;endFill=1;exitX=1;exitY=0.5;exitDx=0;exitDy=0;" parent="1" source="r5BaJk7cRrCO1Sx6e4Hi-1" target="RSyCqdyMON4DzPg3mdLE-1" edge="1">
          <mxGeometry relative="1" as="geometry">
            <mxPoint x="10" y="420" as="sourcePoint" />
            <mxPoint x="213" y="247" as="targetPoint" />
          </mxGeometry>
        </mxCell>
        <mxCell id="fdhvtoYpFGsnpXYKr_OA-2" value="&lt;span style=&quot;color: rgb(0 , 0 , 128) ; font-family: &amp;quot;dialog&amp;quot; ; font-size: 16px ; background-color: rgb(248 , 249 , 250)&quot;&gt;&lt;b&gt;exob:&lt;/b&gt;isReflectionOn&lt;/span&gt;" style="text;html=1;align=center;verticalAlign=middle;resizable=0;points=[];labelBackgroundColor=#ffffff;" parent="fdhvtoYpFGsnpXYKr_OA-1" vertex="1" connectable="0">
          <mxGeometry x="-0.0174" y="2" relative="1" as="geometry">
            <mxPoint x="-26" y="-3" as="offset" />
          </mxGeometry>
        </mxCell>
        <mxCell id="IVDwkpUoPfl4zHWqHd1Y-1" value="" style="graphMlID=e0;rounded=0;endArrow=block;strokeColor=#000080;strokeWidth=1.0;startArrow=oval;startFill=1;endFill=1;exitX=0;exitY=0.5;exitDx=0;exitDy=0;entryX=1;entryY=0.5;entryDx=0;entryDy=0;" parent="1" source="r5BaJk7cRrCO1Sx6e4Hi-1" target="5zVd2lZ5E0JLYklkrZC7-1" edge="1">
          <mxGeometry relative="1" as="geometry">
            <mxPoint x="-40" y="370" as="sourcePoint" />
            <mxPoint x="107" y="391" as="targetPoint" />
          </mxGeometry>
        </mxCell>
        <mxCell id="IVDwkpUoPfl4zHWqHd1Y-2" value="&lt;span style=&quot;color: rgb(0 , 0 , 128) ; font-family: &amp;quot;dialog&amp;quot; ; font-size: 16px ; background-color: rgb(248 , 249 , 250)&quot;&gt;&lt;b&gt;cbo&lt;/b&gt;:hasEffect&lt;/span&gt;" style="text;html=1;align=center;verticalAlign=middle;resizable=0;points=[];labelBackgroundColor=#ffffff;" parent="IVDwkpUoPfl4zHWqHd1Y-1" vertex="1" connectable="0">
          <mxGeometry x="-0.0174" y="2" relative="1" as="geometry">
            <mxPoint x="9" y="-1" as="offset" />
          </mxGeometry>
        </mxCell>
        <mxCell id="nUIWDEqcpl7onQj3Z09r-1" value="" style="graphMlID=e0;rounded=0;endArrow=block;strokeColor=#000080;strokeWidth=1.0;startArrow=oval;startFill=1;endFill=1;exitX=0.5;exitY=1;exitDx=0;exitDy=0;entryX=0.404;entryY=0.004;entryDx=0;entryDy=0;entryPerimeter=0;" parent="1" source="cGCSp1flGnfeDs-r0S0j-1" target="r5BaJk7cRrCO1Sx6e4Hi-1" edge="1">
          <mxGeometry relative="1" as="geometry">
            <mxPoint x="-240" y="180" as="sourcePoint" />
            <mxPoint x="57" y="394" as="targetPoint" />
          </mxGeometry>
        </mxCell>
        <mxCell id="nUIWDEqcpl7onQj3Z09r-2" value="&lt;font face=&quot;dialog&quot; color=&quot;#000080&quot;&gt;&lt;span style=&quot;font-size: 16px; background-color: rgb(248, 249, 250);&quot;&gt;&lt;b&gt;exob&lt;/b&gt;:includes&lt;/span&gt;&lt;/font&gt;" style="text;html=1;align=center;verticalAlign=middle;resizable=0;points=[];labelBackgroundColor=#ffffff;" parent="nUIWDEqcpl7onQj3Z09r-1" vertex="1" connectable="0">
          <mxGeometry x="-0.0174" y="2" relative="1" as="geometry">
            <mxPoint as="offset" />
          </mxGeometry>
        </mxCell>
        <mxCell id="N8_dEedzuJTawHIxHsca-1" value="" style="graphMlID=e0;rounded=0;endArrow=block;strokeColor=#000080;strokeWidth=1.0;startArrow=oval;startFill=1;endFill=1;exitX=0;exitY=0.5;exitDx=0;exitDy=0;entryX=1;entryY=0.5;entryDx=0;entryDy=0;" parent="1" source="0dysBMGijNRupvYEnad4-1" target="Nfzc0pXYAsq9ZPCf8oNW-1" edge="1">
          <mxGeometry relative="1" as="geometry">
            <mxPoint x="87" y="638" as="sourcePoint" />
            <mxPoint x="-120" y="430" as="targetPoint" />
          </mxGeometry>
        </mxCell>
        <mxCell id="N8_dEedzuJTawHIxHsca-2" value="&lt;span style=&quot;color: rgb(0 , 0 , 128) ; font-family: &amp;quot;dialog&amp;quot; ; font-size: 16px ; background-color: rgb(248 , 249 , 250)&quot;&gt;&lt;b&gt;partof&lt;/b&gt;:hasPart&lt;/span&gt;" style="text;html=1;align=center;verticalAlign=middle;resizable=0;points=[];labelBackgroundColor=#ffffff;" parent="N8_dEedzuJTawHIxHsca-1" vertex="1" connectable="0">
          <mxGeometry x="-0.0174" y="2" relative="1" as="geometry">
            <mxPoint x="-60" y="21" as="offset" />
          </mxGeometry>
        </mxCell>
        <mxCell id="N8_dEedzuJTawHIxHsca-3" value="" style="graphMlID=e0;rounded=0;endArrow=block;strokeColor=#000080;strokeWidth=1.0;startArrow=oval;startFill=1;endFill=1;exitX=0.5;exitY=1;exitDx=0;exitDy=0;" parent="1" source="0dysBMGijNRupvYEnad4-1" edge="1">
          <mxGeometry relative="1" as="geometry">
            <mxPoint x="550" y="738" as="sourcePoint" />
            <mxPoint x="270" y="570" as="targetPoint" />
          </mxGeometry>
        </mxCell>
        <mxCell id="N8_dEedzuJTawHIxHsca-4" value="&lt;span style=&quot;color: rgb(0 , 0 , 128) ; font-family: &amp;quot;dialog&amp;quot; ; font-size: 16px ; background-color: rgb(248 , 249 , 250)&quot;&gt;&lt;b&gt;partof&lt;/b&gt;:hasPart&lt;/span&gt;" style="text;html=1;align=center;verticalAlign=middle;resizable=0;points=[];labelBackgroundColor=#ffffff;" parent="N8_dEedzuJTawHIxHsca-3" vertex="1" connectable="0">
          <mxGeometry x="-0.0174" y="2" relative="1" as="geometry">
            <mxPoint x="17" y="-33" as="offset" />
          </mxGeometry>
        </mxCell>
        <mxCell id="xXYNyH8PM82zc2_0ryIh-1" value="" style="graphMlID=e0;rounded=0;endArrow=block;strokeColor=#000080;strokeWidth=1.0;startArrow=oval;startFill=1;endFill=1;entryX=0.557;entryY=1.044;entryDx=0;entryDy=0;exitX=0.5;exitY=0;exitDx=0;exitDy=0;entryPerimeter=0;" parent="1" source="PaXvCF6I9jZfVOhks1jT-1" target="r5BaJk7cRrCO1Sx6e4Hi-1" edge="1">
          <mxGeometry relative="1" as="geometry">
            <mxPoint x="380" y="590" as="sourcePoint" />
            <mxPoint x="250" y="452" as="targetPoint" />
          </mxGeometry>
        </mxCell>
        <mxCell id="xXYNyH8PM82zc2_0ryIh-2" value="&lt;span style=&quot;color: rgb(0 , 0 , 128) ; font-family: &amp;quot;dialog&amp;quot; ; font-size: 16px ; background-color: rgb(248 , 249 , 250)&quot;&gt;&lt;b&gt;exob&lt;/b&gt;:producesObservation&lt;/span&gt;" style="text;html=1;align=center;verticalAlign=middle;resizable=0;points=[];labelBackgroundColor=#ffffff;" parent="xXYNyH8PM82zc2_0ryIh-1" vertex="1" connectable="0">
          <mxGeometry x="-0.0174" y="2" relative="1" as="geometry">
            <mxPoint x="6" y="39" as="offset" />
          </mxGeometry>
        </mxCell>
        <mxCell id="xXYNyH8PM82zc2_0ryIh-3" value="" style="graphMlID=e0;rounded=0;endArrow=block;strokeColor=#000080;strokeWidth=1.0;startArrow=oval;startFill=1;endFill=1;entryX=0.25;entryY=1;entryDx=0;entryDy=0;exitX=0.396;exitY=0.032;exitDx=0;exitDy=0;exitPerimeter=0;" parent="1" source="Nfzc0pXYAsq9ZPCf8oNW-1" target="r5BaJk7cRrCO1Sx6e4Hi-1" edge="1">
          <mxGeometry relative="1" as="geometry">
            <mxPoint x="-240" y="668" as="sourcePoint" />
            <mxPoint x="-370" y="530" as="targetPoint" />
          </mxGeometry>
        </mxCell>
        <mxCell id="xXYNyH8PM82zc2_0ryIh-4" value="&lt;span style=&quot;color: rgb(0 , 0 , 128) ; font-family: &amp;quot;dialog&amp;quot; ; font-size: 16px ; background-color: rgb(248 , 249 , 250)&quot;&gt;&lt;b&gt;exob&lt;/b&gt;:producesObservation&lt;/span&gt;" style="text;html=1;align=center;verticalAlign=middle;resizable=0;points=[];labelBackgroundColor=#ffffff;" parent="xXYNyH8PM82zc2_0ryIh-3" vertex="1" connectable="0">
          <mxGeometry x="-0.0174" y="2" relative="1" as="geometry">
            <mxPoint x="-3" as="offset" />
          </mxGeometry>
        </mxCell>
        <mxCell id="gFf9Clijs_YTwqMRUAkc-1" value="" style="graphMlID=e0;rounded=0;endArrow=block;strokeColor=#000080;strokeWidth=1.0;startArrow=oval;startFill=1;endFill=1;entryX=1;entryY=0.5;entryDx=0;entryDy=0;exitX=0;exitY=0.5;exitDx=0;exitDy=0;" parent="1" source="PaXvCF6I9jZfVOhks1jT-1" target="5BQml85dscBmbz3Mg7MK-1" edge="1">
          <mxGeometry relative="1" as="geometry">
            <mxPoint x="-170" y="610" as="sourcePoint" />
            <mxPoint x="-327" y="787" as="targetPoint" />
          </mxGeometry>
        </mxCell>
        <mxCell id="gFf9Clijs_YTwqMRUAkc-2" value="&lt;span style=&quot;color: rgb(0 , 0 , 128) ; font-family: &amp;quot;dialog&amp;quot; ; font-size: 16px ; background-color: rgb(248 , 249 , 250)&quot;&gt;&lt;b&gt;rdfs&lt;/b&gt;:isSubclassOf&lt;/span&gt;" style="text;html=1;align=center;verticalAlign=middle;resizable=0;points=[];labelBackgroundColor=#ffffff;" parent="gFf9Clijs_YTwqMRUAkc-1" vertex="1" connectable="0">
          <mxGeometry x="-0.0174" y="2" relative="1" as="geometry">
            <mxPoint x="-18" y="-3" as="offset" />
          </mxGeometry>
        </mxCell>
        <mxCell id="gFf9Clijs_YTwqMRUAkc-3" value="" style="graphMlID=e0;rounded=0;endArrow=block;strokeColor=#000080;strokeWidth=1.0;startArrow=oval;startFill=1;endFill=1;entryX=0.424;entryY=-0.005;entryDx=0;entryDy=0;entryPerimeter=0;" parent="1" source="Nfzc0pXYAsq9ZPCf8oNW-1" target="5BQml85dscBmbz3Mg7MK-1" edge="1">
          <mxGeometry relative="1" as="geometry">
            <mxPoint x="-300" y="560" as="sourcePoint" />
            <mxPoint x="-457" y="737" as="targetPoint" />
          </mxGeometry>
        </mxCell>
        <mxCell id="gFf9Clijs_YTwqMRUAkc-4" value="&lt;span style=&quot;color: rgb(0 , 0 , 128) ; font-family: &amp;quot;dialog&amp;quot; ; font-size: 16px ; background-color: rgb(248 , 249 , 250)&quot;&gt;&lt;b&gt;rdfs&lt;/b&gt;:isSubclassOf&lt;/span&gt;" style="text;html=1;align=center;verticalAlign=middle;resizable=0;points=[];labelBackgroundColor=#ffffff;" parent="gFf9Clijs_YTwqMRUAkc-3" vertex="1" connectable="0">
          <mxGeometry x="-0.0174" y="2" relative="1" as="geometry">
            <mxPoint x="-18" y="-3" as="offset" />
          </mxGeometry>
        </mxCell>
        <mxCell id="OTY550xhVwq2-4uswx8X-1" value="Prefixes" style="graphMlID=n0;shape=swimlane;startSize=20;fillColor=#b7b69e;strokeColor=#000000;strokeWidth=1.0;align=right;spacingRight=10;fontStyle=1" parent="1" vertex="1">
          <mxGeometry x="-590" y="-189" width="790" height="139" as="geometry">
            <mxRectangle x="-550" y="110" width="100" height="30" as="alternateBounds" />
          </mxGeometry>
        </mxCell>
        <UserObject label="&lt;font style=&quot;font-size: 12px;&quot;&gt;&lt;br&gt;&lt;/font&gt;&lt;div style=&quot;&quot;&gt;&lt;font style=&quot;font-size: 12px;&quot;&gt;&lt;b&gt;cbo&lt;/b&gt;:https://github.com/corrado877/CognitiveBiasOntologies/blob/main/IllusoryOfCorrelationOntology/IllusoryOfCorrelationOntology.owl#&lt;/font&gt;&lt;div style=&quot;&quot;&gt;&lt;font style=&quot;font-size: 12px;&quot;&gt;&lt;b&gt;dbr&lt;/b&gt;: https://dbpedia.org/resource/&lt;br&gt;&lt;b style=&quot;&quot;&gt;&lt;font style=&quot;font-size: 12px;&quot;&gt;exob&lt;font style=&quot;font-size: 12px;&quot;&gt;:&lt;/font&gt;&lt;/font&gt;&lt;/b&gt;&lt;span style=&quot;border-color: var(--border-color); background-color: initial;&quot;&gt;&lt;span style=&quot;font-family: sans-serif; text-align: justify; background-color: rgb(255, 255, 255);&quot;&gt;&lt;font style=&quot;font-size: 12px;&quot;&gt;http://modellingdh.github.io/ont/odp/term/&lt;/font&gt;&lt;/span&gt;&lt;br&gt;&lt;b style=&quot;border-color: var(--border-color);&quot;&gt;fs&lt;/b&gt;&lt;span style=&quot;&quot;&gt;:https://w3id.org/framester/data/framestercore/&lt;/span&gt;&lt;/span&gt;&lt;/font&gt;&lt;/div&gt;&lt;div style=&quot;&quot;&gt;&lt;font style=&quot;font-size: 12px;&quot;&gt;&lt;span style=&quot;border-color: var(--border-color); background-color: initial;&quot;&gt;&lt;b style=&quot;&quot;&gt;fsyn&lt;/b&gt;:https://w3id.org/framester/data/framestersyn/&lt;br&gt;&lt;/span&gt;&lt;b style=&quot;border-color: var(--border-color);&quot;&gt;pof&lt;/b&gt;:&amp;nbsp;&lt;span style=&quot;border-color: var(--border-color); background-color: initial;&quot;&gt;http://www.ontologydesignpatterns.org/cp/owl/partof.owl#&lt;/span&gt;&lt;br&gt;&lt;b style=&quot;&quot;&gt;rdfs&lt;/b&gt;:http://www.w3.org/2000/01/rdf-schema#&lt;/font&gt;&lt;/div&gt;&lt;/div&gt;" link="http://www.w3.org/2000/01/rdf-schema#" id="OTY550xhVwq2-4uswx8X-2">
          <mxCell style="text;whiteSpace=wrap;html=1;" parent="OTY550xhVwq2-4uswx8X-1" vertex="1">
            <mxGeometry x="10" y="9" width="640" height="170" as="geometry" />
          </mxCell>
        </UserObject>
        <mxCell id="NmjNTOWCWf52FdYZ6F1o-1" value="ODPs and Ontologies Used" style="graphMlID=n0;shape=swimlane;startSize=20;fillColor=#b7b69e;strokeColor=#000000;strokeWidth=1.0;align=right;spacingRight=10;fontStyle=1" parent="1" vertex="1">
          <mxGeometry x="254" y="-169.5" width="266" height="99.5" as="geometry">
            <mxRectangle x="517.49" y="-170" width="200" height="30" as="alternateBounds" />
          </mxGeometry>
        </mxCell>
        <mxCell id="NmjNTOWCWf52FdYZ6F1o-2" value="&lt;div&gt;&lt;br&gt;&lt;/div&gt;&lt;ul&gt;&lt;li style=&quot;border-color: var(--border-color);&quot;&gt;Dbpedia Ontology&lt;/li&gt;&lt;li style=&quot;border-color: var(--border-color);&quot;&gt;Experience and Observation&lt;/li&gt;&lt;li&gt;PartOf&lt;/li&gt;&lt;/ul&gt;" style="text;html=1;strokeColor=none;fillColor=none;align=left;verticalAlign=middle;whiteSpace=wrap;rounded=0;" parent="NmjNTOWCWf52FdYZ6F1o-1" vertex="1">
          <mxGeometry x="-14" y="-19.5" width="270" height="141" as="geometry" />
        </mxCell>
        <mxCell id="XRqINVUKroPxstG0D4da-1" value="fs:People" style="graphMlID=n4;shape=rect;rounded=1;arcsize=30;fillColor=#ffff00;strokeColor=#000000;strokeWidth=1.0;fontStyle=1" parent="1" vertex="1">
          <mxGeometry x="830" y="30" width="120" height="44" as="geometry" />
        </mxCell>
        <mxCell id="XRqINVUKroPxstG0D4da-2" value="" style="graphMlID=e0;rounded=0;endArrow=block;strokeColor=#000080;strokeWidth=1.0;startArrow=oval;startFill=1;endFill=1;entryX=0.5;entryY=1;entryDx=0;entryDy=0;" parent="1" target="XRqINVUKroPxstG0D4da-1" edge="1">
          <mxGeometry relative="1" as="geometry">
            <mxPoint x="724.97" y="144.58183758898736" as="sourcePoint" />
            <mxPoint x="875.97" y="144.5" as="targetPoint" />
          </mxGeometry>
        </mxCell>
        <mxCell id="XRqINVUKroPxstG0D4da-3" value="&lt;span style=&quot;color: rgb(0 , 0 , 128) ; font-family: &amp;quot;dialog&amp;quot; ; font-size: 16px ; background-color: rgb(248 , 249 , 250)&quot;&gt;&lt;b&gt;rdfs&lt;/b&gt;:subClassOf&lt;/span&gt;" style="text;html=1;align=center;verticalAlign=middle;resizable=0;points=[];labelBackgroundColor=#ffffff;" parent="XRqINVUKroPxstG0D4da-2" vertex="1" connectable="0">
          <mxGeometry x="-0.0174" y="2" relative="1" as="geometry">
            <mxPoint as="offset" />
          </mxGeometry>
        </mxCell>
      </root>
    </mxGraphModel>
  </diagram>
</mxfile>
